<svg width="54" height="56" viewBox="0 0 54 56" fill="none" xmlns="http://www.w3.org/2000/svg">
<rect y="13" width="54" height="42" rx="5" fill="#F4F5C6"/>
<g filter="url(#filter0_f_2590_7)">
<path d="M20.2727 26.1628V35.8884C20.2727 36.2456 19.9089 36.4876 19.5795 36.3495L6.85289 31.0165C6.3723 30.8151 5.94267 31.3912 6.2728 31.7944L22.141 51.173C22.4097 51.5012 22.9393 51.3667 23.0189 50.9501L24.8285 41.4868C24.8865 41.1832 25.2034 41.0045 25.4933 41.1119L31.1816 43.2196C31.666 43.399 32.0713 42.8156 31.7341 42.4243L27.6337 37.6661C27.5392 37.5564 27.4968 37.411 27.5177 37.2677L29.3807 24.4641C29.4667 23.8735 28.6321 23.656 28.4189 24.2135L24.2558 35.0996C24.0791 35.5615 23.4108 35.514 23.3012 35.0318L21.2603 26.052C21.1282 25.4707 20.2727 25.5667 20.2727 26.1628Z" fill="#FF9417"/>
</g>
<path d="M37 6.43142V18.75C37 19.1068 36.637 19.3488 36.3077 19.2115L20.8575 12.774C20.3763 12.5735 19.9478 13.151 20.2792 13.5534L39.3239 36.679C39.5929 37.0057 40.1209 36.8712 40.2009 36.4556L42.3888 25.0784C42.447 24.7754 42.7631 24.5969 43.0526 24.7036L50.1767 27.3283C50.6617 27.5069 51.0659 26.9222 50.7274 26.5316L45.6501 20.6732C45.5548 20.5632 45.5121 20.4172 45.5332 20.2733L47.85 4.44146C47.9364 3.85121 47.1028 3.6328 46.8886 4.18957L41.5887 17.9694C41.4115 18.4302 40.7446 18.3826 40.6346 17.9013L37.9874 6.32C37.8547 5.7393 37 5.83574 37 6.43142Z" fill="#834B09"/>
<defs>
<filter id="filter0_f_2590_7" x="2.15656" y="19.8907" width="33.7017" height="35.4658" filterUnits="userSpaceOnUse" color-interpolation-filters="sRGB">
<feFlood flood-opacity="0" result="BackgroundImageFix"/>
<feBlend mode="normal" in="SourceGraphic" in2="BackgroundImageFix" result="shape"/>
<feGaussianBlur stdDeviation="2" result="effect1_foregroundBlur_2590_7"/>
</filter>
</defs>
</svg>
