<svg width="50" height="50" viewBox="0 0 50 50" fill="none" xmlns="http://www.w3.org/2000/svg">
<rect width="50" height="50" fill="#EEEEEE"/>
<path d="M14.0938 23.2501C14.0938 23.0263 14.0049 22.8117 13.8466 22.6534C13.6884 22.4952 13.4738 22.4063 13.25 22.4063C13.0262 22.4063 12.8116 22.4952 12.6534 22.6534C12.4951 22.8117 12.4063 23.0263 12.4063 23.2501H14.0938ZM34.9063 27.7501C34.9063 27.9738 34.9951 28.1884 35.1534 28.3467C35.3116 28.5049 35.5262 28.5938 35.75 28.5938C35.9738 28.5938 36.1884 28.5049 36.3466 28.3467C36.5049 28.1884 36.5938 27.9738 36.5938 27.7501H34.9063ZM12.5244 18.6679C12.5026 18.8907 12.5702 19.1129 12.7123 19.2858C12.8544 19.4587 13.0593 19.5681 13.2821 19.5899C13.5048 19.6117 13.7271 19.5441 13.9 19.402C14.0729 19.2599 14.1822 19.0549 14.204 18.8322L12.5244 18.6679ZM36.4756 32.3322C36.4864 32.2219 36.4754 32.1106 36.4431 32.0046C36.4109 31.8985 36.3581 31.7999 36.2877 31.7143C36.2174 31.6287 36.1308 31.5578 36.0331 31.5056C35.9353 31.4534 35.8282 31.421 35.7179 31.4102C35.6077 31.3995 35.4963 31.4105 35.3903 31.4427C35.2843 31.475 35.1857 31.5278 35.1 31.5982C34.9272 31.7402 34.8178 31.9452 34.796 32.1679L36.4756 32.3322ZM26.75 35.9063H22.25V37.5938H26.75V35.9063ZM14.0938 27.7501V23.2501H12.4063V27.7501H14.0938ZM34.9063 27.2584V27.7501H36.5938V27.2584H34.9063ZM27.7524 17.1874L32.2063 21.1958L33.3346 19.9403L28.8819 15.9319L27.7524 17.1874ZM36.5938 27.2584C36.5938 25.3583 36.6106 24.1546 36.1325 23.0791L34.5901 23.7664C34.8894 24.4392 34.9063 25.2098 34.9063 27.2584H36.5938ZM32.2063 21.1958C33.7284 22.5661 34.2909 23.0948 34.5901 23.7664L36.1325 23.0791C35.6533 22.0024 34.7476 21.2116 33.3346 19.9403L32.2063 21.1958ZM22.2838 15.0938C24.0635 15.0938 24.7351 15.1073 25.3325 15.3368L25.9378 13.7618C24.9793 13.3928 23.9353 13.4063 22.2838 13.4063V15.0938ZM28.8819 15.9331C27.6601 14.8339 26.8963 14.1286 25.9378 13.7618L25.3336 15.3368C25.9321 15.5663 26.4361 16.0028 27.7524 17.1874L28.8819 15.9331ZM22.25 35.9063C20.1046 35.9063 18.5814 35.9041 17.4238 35.7488C16.2931 35.5969 15.6406 35.3112 15.1648 34.8353L13.9723 36.0278C14.8138 36.8716 15.8814 37.2439 17.1999 37.4217C18.4936 37.5961 20.153 37.5938 22.25 37.5938V35.9063ZM12.4063 27.7501C12.4063 29.8471 12.404 31.5053 12.5784 32.8002C12.7561 34.1187 13.1296 35.1863 13.9711 36.0289L15.1636 34.8364C14.6889 34.3594 14.4031 33.7069 14.2513 32.5752C14.096 31.4198 14.0938 29.8954 14.0938 27.7501H12.4063ZM26.75 37.5938C28.847 37.5938 30.5053 37.5961 31.8001 37.4217C33.1186 37.2439 34.1863 36.8704 35.0289 36.0289L33.8364 34.8364C33.3594 35.3112 32.7069 35.5969 31.5751 35.7488C30.4198 35.9041 28.8954 35.9063 26.75 35.9063V37.5938ZM22.2838 13.4063C20.1744 13.4063 18.5083 13.4041 17.2089 13.5784C15.8848 13.7562 14.8138 14.1297 13.9711 14.9712L15.1636 16.1637C15.6406 15.6889 16.2943 15.4032 17.4328 15.2513C18.5949 15.0961 20.1271 15.0938 22.2838 15.0938V13.4063ZM14.204 18.8322C14.3401 17.4439 14.6338 16.6947 15.1648 16.1648L13.9723 14.9723C13.0318 15.9106 12.6751 17.1312 12.5244 18.6679L14.204 18.8322ZM34.796 32.1679C34.6599 33.5562 34.3651 34.3054 33.8353 34.8353L35.0278 36.0278C35.9683 35.0896 36.3249 33.8689 36.4756 32.3322L34.796 32.1679Z" fill="#999999"/>
<path d="M25.625 14.8125V17.625C25.625 20.2766 25.625 21.603 26.4485 22.4265C27.272 23.25 28.5984 23.25 31.25 23.25H35.75" stroke="#999999" stroke-width="1.5"/>
</svg>
