<svg width="196" height="56" viewBox="0 0 196 56" fill="none" xmlns="http://www.w3.org/2000/svg">
<path d="M64.106 25.64H67.427V37.412C67.427 38.6 67.688 39.536 68.21 40.22C68.732 40.886 69.569 41.219 70.721 41.219C71.873 41.219 72.71 40.886 73.232 40.22C73.754 39.536 74.015 38.6 74.015 37.412V25.64H77.336V37.412C77.336 39.482 76.787 41.147 75.689 42.407C74.591 43.649 72.935 44.27 70.721 44.27C68.489 44.27 66.824 43.649 65.726 42.407C64.646 41.147 64.106 39.482 64.106 37.412V25.64ZM87.3931 44V25.64H93.4411C95.3671 25.64 96.8071 26.126 97.7611 27.098C98.7331 28.07 99.2191 29.366 99.2191 30.986V32.417C99.2191 34.037 98.7331 35.342 97.7611 36.332C96.8071 37.304 95.3671 37.79 93.4411 37.79H90.6331V44H87.3931ZM93.4411 28.745H90.6331V34.685H93.4411C94.2331 34.685 94.8361 34.487 95.2501 34.091C95.6821 33.695 95.8981 33.137 95.8981 32.417V30.986C95.8981 30.284 95.6821 29.735 95.2501 29.339C94.8361 28.943 94.2331 28.745 93.4411 28.745ZM111.537 44H108.297V25.64H111.537V44ZM132.587 40.895V44H122.003V25.64H125.243V40.895H132.587ZM150.861 44L149.727 40.409H143.436L142.302 44H139.089L145.218 25.64H148.08L154.236 44H150.861ZM145.191 34.793L144.354 37.439H148.782L147.945 34.793L146.595 30.149L145.191 34.793ZM162.703 44V25.64H168.292C169.66 25.64 170.74 25.838 171.532 26.234C172.342 26.63 172.918 27.188 173.26 27.908C173.62 28.628 173.8 29.474 173.8 30.446V31.202C173.8 32.624 173.188 33.713 171.964 34.469C172.828 34.811 173.485 35.306 173.935 35.954C174.385 36.602 174.61 37.376 174.61 38.276V39.032C174.61 40.022 174.43 40.895 174.07 41.651C173.71 42.389 173.116 42.965 172.288 43.379C171.46 43.793 170.353 44 168.967 44H162.703ZM168.292 28.61H165.943V33.2H168.292C169.012 33.2 169.552 33.038 169.912 32.714C170.29 32.372 170.479 31.913 170.479 31.337V30.446C170.479 29.87 170.29 29.42 169.912 29.096C169.552 28.772 169.012 28.61 168.292 28.61ZM168.967 36.17H165.943V41.03H168.967C169.723 41.03 170.299 40.85 170.695 40.49C171.091 40.13 171.289 39.644 171.289 39.032V38.141C171.289 37.529 171.091 37.052 170.695 36.71C170.299 36.35 169.723 36.17 168.967 36.17ZM187.893 41.273C189.981 41.273 191.025 40.499 191.025 38.951C191.025 38.321 190.863 37.826 190.539 37.466C190.233 37.106 189.657 36.791 188.811 36.521L186.597 35.792C183.951 34.928 182.628 33.191 182.628 30.581C182.628 29.069 183.096 27.827 184.032 26.855C184.986 25.865 186.471 25.37 188.487 25.37C189.333 25.37 190.17 25.469 190.998 25.667C191.826 25.847 192.708 26.144 193.644 26.558L192.645 29.339C191.781 28.997 191.043 28.754 190.431 28.61C189.837 28.448 189.225 28.367 188.595 28.367C187.767 28.367 187.11 28.52 186.624 28.826C186.156 29.114 185.922 29.645 185.922 30.419C185.922 30.995 186.084 31.472 186.408 31.85C186.75 32.21 187.308 32.516 188.082 32.768L190.296 33.497C191.628 33.947 192.627 34.604 193.293 35.468C193.977 36.314 194.319 37.439 194.319 38.843C194.319 40.463 193.806 41.777 192.78 42.785C191.754 43.775 190.143 44.27 187.947 44.27C187.083 44.27 186.183 44.171 185.247 43.973C184.329 43.757 183.321 43.397 182.223 42.893L183.222 40.112C184.23 40.544 185.085 40.85 185.787 41.03C186.507 41.192 187.209 41.273 187.893 41.273Z" fill="black"/>
<rect y="13" width="54" height="42" rx="5" fill="#F4F5C6"/>
<g filter="url(#filter0_f_2204_6)">
<path d="M20.2727 26.1628V35.8884C20.2727 36.2456 19.9089 36.4876 19.5795 36.3495L6.85289 31.0165C6.3723 30.8151 5.94267 31.3912 6.2728 31.7944L22.141 51.173C22.4097 51.5012 22.9393 51.3667 23.0189 50.9501L24.8285 41.4868C24.8865 41.1832 25.2034 41.0045 25.4933 41.1119L31.1816 43.2196C31.666 43.399 32.0713 42.8156 31.7341 42.4243L27.6337 37.6661C27.5392 37.5564 27.4968 37.411 27.5177 37.2677L29.3807 24.4641C29.4667 23.8735 28.6321 23.656 28.4189 24.2135L24.2558 35.0996C24.0791 35.5615 23.4108 35.514 23.3012 35.0318L21.2603 26.052C21.1282 25.4707 20.2727 25.5667 20.2727 26.1628Z" fill="#FF9417"/>
</g>
<path d="M37 6.43142V18.75C37 19.1068 36.637 19.3488 36.3077 19.2115L20.8575 12.774C20.3763 12.5735 19.9478 13.151 20.2792 13.5534L39.3239 36.679C39.5929 37.0057 40.1209 36.8712 40.2009 36.4556L42.3888 25.0784C42.447 24.7754 42.7631 24.5969 43.0526 24.7036L50.1767 27.3283C50.6617 27.5069 51.0659 26.9222 50.7274 26.5316L45.6501 20.6732C45.5548 20.5632 45.5121 20.4172 45.5332 20.2733L47.85 4.44146C47.9364 3.85121 47.1028 3.6328 46.8886 4.18957L41.5887 17.9694C41.4115 18.4302 40.7446 18.3826 40.6346 17.9013L37.9874 6.32C37.8547 5.7393 37 5.83574 37 6.43142Z" fill="#834B09"/>
<defs>
<filter id="filter0_f_2204_6" x="2.15656" y="19.8907" width="33.7017" height="35.4658" filterUnits="userSpaceOnUse" color-interpolation-filters="sRGB">
<feFlood flood-opacity="0" result="BackgroundImageFix"/>
<feBlend mode="normal" in="SourceGraphic" in2="BackgroundImageFix" result="shape"/>
<feGaussianBlur stdDeviation="2" result="effect1_foregroundBlur_2204_6"/>
</filter>
</defs>
</svg>
