<svg width="28" height="28" viewBox="0 0 28 28" fill="none" xmlns="http://www.w3.org/2000/svg">
<path fill-rule="evenodd" clip-rule="evenodd" d="M27.8571 13.9286C27.8571 21.6213 21.6213 27.8571 13.9286 27.8571C6.23582 27.8571 0 21.6213 0 13.9286C0 6.23582 6.23582 0 13.9286 0C21.6213 0 27.8571 6.23582 27.8571 13.9286ZM13.9286 25.0714C16.8838 25.0714 19.7181 23.8975 21.8078 21.8078C23.8975 19.7181 25.0714 16.8838 25.0714 13.9286C25.0714 10.9733 23.8975 8.13907 21.8078 6.04938C19.7181 3.95969 16.8838 2.78571 13.9286 2.78571C10.9733 2.78571 8.13907 3.95969 6.04938 6.04938C3.95969 8.13907 2.78571 10.9733 2.78571 13.9286C2.78571 16.8838 3.95969 19.7181 6.04938 21.8078C8.13907 23.8975 10.9733 25.0714 13.9286 25.0714Z" fill="#F4F5C6"/>
<path fill-rule="evenodd" clip-rule="evenodd" d="M13.9286 5.57141C14.298 5.57141 14.6523 5.71816 14.9135 5.97937C15.1747 6.24058 15.3215 6.59486 15.3215 6.96427V13.0831L19.1936 15.0944C19.356 15.1787 19.5001 15.2942 19.6178 15.4342C19.7355 15.5742 19.8245 15.7361 19.8797 15.9105C19.9348 16.0849 19.9551 16.2685 19.9393 16.4507C19.9235 16.633 19.872 16.8103 19.7877 16.9726C19.7034 17.135 19.5879 17.2791 19.4479 17.3968C19.3078 17.5145 19.146 17.6035 18.9716 17.6587C18.6193 17.7701 18.2373 17.737 17.9094 17.5667L13.8868 15.4774C13.4794 15.2657 13.138 14.9462 12.8997 14.5537C12.6615 14.1612 12.5356 13.7108 12.5358 13.2516V6.96427C12.5358 6.59486 12.6825 6.24058 12.9437 5.97937C13.2049 5.71816 13.5592 5.57141 13.9286 5.57141Z" fill="#F4F5C6"/>
</svg>
